<svg version="1.1" id="Layer_1" xmlns="http://www.w3.org/2000/svg" xmlns:xlink="http://www.w3.org/1999/xlink" x="0px" y="0px"
	 width="100%" viewBox="0 0 500 500" enable-background="new 0 0 500 500" xml:space="preserve">
<path fill="#000000" opacity="1.000000" stroke="none" 
	d="
M229.000000,501.000000 
	C152.666687,501.000000 76.833366,501.000000 1.000041,501.000000 
	C1.000027,334.333405 1.000027,167.666779 1.000014,1.000130 
	C167.666565,1.000087 334.333130,1.000087 500.999756,1.000043 
	C500.999847,167.666519 500.999847,334.333038 500.999939,500.999786 
	C410.500000,501.000000 320.000000,501.000000 229.000000,501.000000 
M312.075439,224.233856 
	C312.055115,223.501663 312.034790,222.769485 311.841339,221.203903 
	C311.662109,212.659576 309.720764,209.989929 302.738098,209.327927 
	C302.738098,222.725235 302.738098,236.080887 302.738098,249.436523 
	C302.283997,249.445679 301.829895,249.454834 301.375793,249.463989 
	C301.375793,236.049606 301.375793,222.635223 301.375793,208.767929 
	C272.196259,210.268066 243.893936,211.723099 215.287125,213.193787 
	C216.306381,201.070953 217.248886,189.860886 218.203644,178.505188 
	C236.126938,176.628632 253.497269,174.798218 270.870300,172.994110 
	C291.077881,170.895630 311.296082,168.895737 331.492279,166.693634 
	C338.517273,165.927673 340.811768,163.227371 340.993011,156.302902 
	C341.385406,141.311157 341.762726,126.318718 342.056122,111.324799 
	C342.226135,102.635902 339.170441,99.615326 330.329559,99.953239 
	C315.012726,100.538658 299.701874,101.285446 284.390442,102.005760 
	C243.781647,103.916161 203.172836,105.826759 162.566757,107.793633 
	C155.780472,108.122337 153.495148,110.384842 152.897385,117.294548 
	C150.284744,147.495041 146.837143,177.657761 145.370483,207.915527 
	C142.612076,264.822266 140.971817,321.783783 138.969055,378.726105 
	C138.627747,388.429962 141.921707,391.166351 151.483582,390.625977 
	C180.093719,389.009216 208.711166,387.520294 237.327774,386.020203 
	C265.112732,384.563660 292.902832,383.203888 320.684998,381.697418 
	C329.636780,381.212036 331.181702,379.407471 331.197113,370.301483 
	C331.223602,354.637085 331.238068,338.972565 331.196167,323.308258 
	C331.174774,315.305420 327.858887,312.014160 319.910980,312.259338 
	C296.261230,312.988800 272.617676,313.944031 248.964859,314.538147 
	C236.526566,314.850555 224.073959,314.593292 211.164200,314.593292 
	C211.811630,303.907654 212.500793,292.533173 213.197220,281.038910 
	C242.966888,277.017853 272.326874,273.032776 301.693665,269.098022 
	C309.832153,268.007599 311.719818,266.029755 311.789734,257.942749 
	C311.884766,246.950134 311.940796,235.957199 312.075439,224.233856 
z"/>
<path fill="#03A8E7" opacity="1.000000" stroke="none" 
	d="
M312.013550,224.964386 
	C311.940796,235.957199 311.884766,246.950134 311.789734,257.942749 
	C311.719818,266.029755 309.832153,268.007599 301.693665,269.098022 
	C272.326874,273.032776 242.966888,277.017853 213.197220,281.038910 
	C212.500793,292.533173 211.811630,303.907654 211.164200,314.593292 
	C224.073959,314.593292 236.526566,314.850555 248.964859,314.538147 
	C272.617676,313.944031 296.261230,312.988800 319.910980,312.259338 
	C327.858887,312.014160 331.174774,315.305420 331.196167,323.308258 
	C331.238068,338.972565 331.223602,354.637085 331.197113,370.301483 
	C331.181702,379.407471 329.636780,381.212036 320.684998,381.697418 
	C292.902832,383.203888 265.112732,384.563660 237.327774,386.020203 
	C208.711166,387.520294 180.093719,389.009216 151.483582,390.625977 
	C141.921707,391.166351 138.627747,388.429962 138.969055,378.726105 
	C140.971817,321.783783 142.612076,264.822266 145.370483,207.915527 
	C146.837143,177.657761 150.284744,147.495041 152.897385,117.294548 
	C153.495148,110.384842 155.780472,108.122337 162.566757,107.793633 
	C203.172836,105.826759 243.781647,103.916161 284.390442,102.005760 
	C299.701874,101.285446 315.012726,100.538658 330.329559,99.953239 
	C339.170441,99.615326 342.226135,102.635902 342.056122,111.324799 
	C341.762726,126.318718 341.385406,141.311157 340.993011,156.302902 
	C340.811768,163.227371 338.517273,165.927673 331.492279,166.693634 
	C311.296082,168.895737 291.077881,170.895630 270.870300,172.994110 
	C253.497269,174.798218 236.126938,176.628632 218.203644,178.505188 
	C217.248886,189.860886 216.306381,201.070953 215.287125,213.193787 
	C243.893936,211.723099 272.196259,210.268066 301.375793,208.767929 
	C301.375793,222.635223 301.375793,236.049606 301.375793,249.463989 
	C301.829895,249.454834 302.283997,249.445679 302.738098,249.436523 
	C302.738098,236.080887 302.738098,222.725235 302.738098,209.327927 
	C309.720764,209.989929 311.662109,212.659576 311.571289,221.868134 
	C310.910156,222.271545 310.529449,221.806168 310.126282,221.785843 
	C308.509888,221.704300 306.886536,221.760773 305.265778,221.766220 
	C305.324280,223.286377 305.382751,224.806534 305.441254,226.326691 
	C306.994965,225.959824 308.544983,225.576172 310.104187,225.234329 
	C310.730286,225.097046 311.376495,225.051620 312.013550,224.964386 
M203.814407,265.120209 
	C207.062408,265.073029 210.319733,265.124634 213.543381,264.819824 
	C213.852036,264.790619 213.950668,262.540039 214.081863,261.724396 
	C211.554642,261.468079 209.803467,261.290466 208.860687,261.194855 
	C206.694351,262.728027 204.805283,264.065002 202.470169,264.731995 
	C201.027664,264.321686 198.753067,263.158722 198.308075,263.650665 
	C197.232910,264.839355 196.510742,266.841156 196.639481,268.434875 
	C196.713577,269.352264 198.696518,270.782257 199.864182,270.826752 
	C204.443115,271.001129 202.413742,267.341736 203.814407,265.120209 
M232.895599,363.818207 
	C232.393326,367.570557 235.053619,367.348480 237.252075,366.900757 
	C238.305054,366.686340 239.099365,365.201874 240.010834,364.292603 
	C238.375977,363.353699 236.799927,362.266663 235.065659,361.578186 
	C234.622147,361.402130 233.678131,362.486816 232.895599,363.818207 
M202.799881,253.129608 
	C201.981995,253.572479 201.164124,254.015350 200.264893,254.502258 
	C205.329575,259.016846 205.329575,259.016846 207.967514,252.549896 
	C206.280197,252.689285 204.881332,252.804840 202.799881,253.129608 
M190.119125,365.720062 
	C189.251694,364.705475 188.384247,363.690857 187.516800,362.676270 
	C187.105240,363.891266 186.323059,365.120392 186.368622,366.317993 
	C186.437653,368.132904 187.082306,369.925934 187.482407,371.728241 
	C187.814697,371.767334 188.146988,371.806396 188.479279,371.845459 
	C189.025574,370.073273 189.571869,368.301117 190.119125,365.720062 
M178.461197,371.944702 
	C176.676666,371.359650 174.915085,370.608276 173.084656,370.355621 
	C172.784653,370.314240 172.181641,372.468384 171.718689,373.607788 
	C172.074570,374.027191 172.430466,374.446594 172.786362,374.865967 
	C174.587341,374.131165 176.388336,373.396332 178.461197,371.944702 
M233.290421,135.238266 
	C235.335098,135.337952 237.379776,135.437637 239.962448,135.563553 
	C239.182800,133.590683 238.696915,132.361145 237.825867,130.157013 
	C235.986588,131.797409 234.422256,133.192596 233.290421,135.238266 
z"/>
<path fill="#00070A" opacity="1.000000" stroke="none" 
	d="
M312.044495,224.599121 
	C311.376495,225.051620 310.730286,225.097046 310.104187,225.234329 
	C308.544983,225.576172 306.994965,225.959824 305.441254,226.326691 
	C305.382751,224.806534 305.324280,223.286377 305.265778,221.766220 
	C306.886536,221.760773 308.509888,221.704300 310.126282,221.785843 
	C310.529449,221.806168 310.910156,222.271545 311.657837,222.284836 
	C312.034790,222.769485 312.055115,223.501663 312.044495,224.599121 
z"/>
<path fill="#000D12" opacity="1.000000" stroke="none" 
	d="
M202.916214,265.401947 
	C204.805283,264.065002 206.694351,262.728027 208.860687,261.194855 
	C209.803467,261.290466 211.554642,261.468079 214.081863,261.724396 
	C213.950668,262.540039 213.852036,264.790619 213.543381,264.819824 
	C210.319733,265.124634 207.062408,265.073029 203.341431,265.164001 
	C202.868439,265.207764 202.916214,265.401947 202.916214,265.401947 
z"/>
<path fill="#001117" opacity="1.000000" stroke="none" 
	d="
M202.693192,265.066956 
	C202.916214,265.401947 202.868439,265.207764 202.851440,265.155914 
	C202.413742,267.341736 204.443115,271.001129 199.864182,270.826752 
	C198.696518,270.782257 196.713577,269.352264 196.639481,268.434875 
	C196.510742,266.841156 197.232910,264.839355 198.308075,263.650665 
	C198.753067,263.158722 201.027664,264.321686 202.693192,265.066956 
z"/>
<path fill="#000C10" opacity="1.000000" stroke="none" 
	d="
M232.929840,363.405212 
	C233.678131,362.486816 234.622147,361.402130 235.065659,361.578186 
	C236.799927,362.266663 238.375977,363.353699 240.010834,364.292603 
	C239.099365,365.201874 238.305054,366.686340 237.252075,366.900757 
	C235.053619,367.348480 232.393326,367.570557 232.929840,363.405212 
z"/>
<path fill="#001016" opacity="1.000000" stroke="none" 
	d="
M203.141174,253.024994 
	C204.881332,252.804840 206.280197,252.689285 207.967514,252.549896 
	C205.329575,259.016846 205.329575,259.016846 200.264893,254.502258 
	C201.164124,254.015350 201.981995,253.572479 203.141174,253.024994 
z"/>
<path fill="#001016" opacity="1.000000" stroke="none" 
	d="
M190.118652,366.124512 
	C189.571869,368.301117 189.025574,370.073273 188.479279,371.845459 
	C188.146988,371.806396 187.814697,371.767334 187.482407,371.728241 
	C187.082306,369.925934 186.437653,368.132904 186.368622,366.317993 
	C186.323059,365.120392 187.105240,363.891266 187.516800,362.676270 
	C188.384247,363.690857 189.251694,364.705475 190.118652,366.124512 
z"/>
<path fill="#00141B" opacity="1.000000" stroke="none" 
	d="
M178.325256,372.303101 
	C176.388336,373.396332 174.587341,374.131165 172.786362,374.865967 
	C172.430466,374.446594 172.074570,374.027191 171.718689,373.607788 
	C172.181641,372.468384 172.784653,370.314240 173.084656,370.355621 
	C174.915085,370.608276 176.676666,371.359650 178.325256,372.303101 
z"/>
<path fill="#011F2B" opacity="1.000000" stroke="none" 
	d="
M233.074158,134.913025 
	C234.422256,133.192596 235.986588,131.797409 237.825867,130.157013 
	C238.696915,132.361145 239.182800,133.590683 239.962448,135.563553 
	C237.379776,135.437637 235.335098,135.337952 233.074158,134.913025 
z"/>
</svg>